<svg xmlns="http://www.w3.org/2000/svg" width="15.033" height="18.377" viewBox="0 0 15.033 18.377">
  <path id="Layer_8" data-name="Layer 8" d="M18.036,3.506V16.871A2.431,2.431,0,0,1,15.7,19.377H9.683a.835.835,0,0,1,0-1.671H15.7a.777.777,0,0,0,.668-.835V3.506a.777.777,0,0,0-.668-.835H9.683A.835.835,0,0,1,9.683,1H15.7A2.431,2.431,0,0,1,18.036,3.506ZM5.849,11.024h7.175a.835.835,0,0,0,0-1.671H5.849L7.035,8.175A.839.839,0,0,0,5.849,6.989L3.243,9.6a.864.864,0,0,0,0,1.186l2.606,2.606A.839.839,0,1,0,7.035,12.2Z" transform="translate(-3.005 -1)" fill="#231f20"/>
</svg>
