<svg xmlns="http://www.w3.org/2000/svg" version="1.1" xmlnsXlink="http://www.w3.org/1999/xlink" xmlnssvgjs="http://svgjs.com/svgjs" x="0" y="0" viewBox="0 0 64 64" style="enable-background:new 0 0 512 512" xml:space="preserve" class=""><g transform="matrix(-1,0,0,1,64,0)"><g xmlns="http://www.w3.org/2000/svg"><g><g><path d="m59.5 18.5h-55c-1.1 0-2-.9-2-2s.9-2 2-2h55c1.1 0 2 .9 2 2s-.9 2-2 2z" fill="currentColor" data-original="#000000" class=""/></g></g></g><g xmlns="http://www.w3.org/2000/svg"><g><g><path d="m32.5 34.5h-28c-1.1 0-2-.9-2-2s.9-2 2-2h28c1.1 0 2 .9 2 2s-.9 2-2 2z" fill="currentColor" data-original="#000000" class=""/></g></g></g><g xmlns="http://www.w3.org/2000/svg"><g><g><path d="m59.5 50.5h-55c-1.1 0-2-.9-2-2s.9-2 2-2h55c1.1 0 2 .9 2 2s-.9 2-2 2z" fill="currentColor" data-original="#000000" class=""/></g></g></g></g></svg>